<?xml version="1.0" encoding="utf-8"?>
<!-- Generator: Adobe Illustrator 23.0.6, SVG Export Plug-In . SVG Version: 6.00 Build 0)  -->
<svg version="1.1" id="Vrstva_1" xmlns="http://www.w3.org/2000/svg" xmlns:xlink="http://www.w3.org/1999/xlink" x="0px" y="0px"
	 viewBox="0 0 117.9 122" style="enable-background:new 0 0 117.9 122;" xml:space="preserve">
<style type="text/css">
	.st0{clip-path:url(#SVGID_2_);}
	.st1{fill:#FFFFFF;filter:url(#Adobe_OpacityMaskFilter);}
	.st2{mask:url(#b_1_);}
	.st3{fill-rule:evenodd;clip-rule:evenodd;fill:#253475;}
	.st4{fill-rule:evenodd;clip-rule:evenodd;fill:#08104D;}
	.st5{fill-rule:evenodd;clip-rule:evenodd;fill:#F11900;}
	.st6{fill-rule:evenodd;clip-rule:evenodd;fill:#FF4B36;}
	.st7{fill-rule:evenodd;clip-rule:evenodd;fill:#D10005;}
</style>
<g>
	<defs>
		<rect id="SVGID_1_" x="0.1" y="0" width="302.6" height="122"/>
	</defs>
	<clipPath id="SVGID_2_">
		<use xlink:href="#SVGID_1_"  style="overflow:visible;"/>
	</clipPath>
	<g class="st0">
		<defs>
			<filter id="Adobe_OpacityMaskFilter" filterUnits="userSpaceOnUse" x="21.2" y="8.1" width="82.8" height="103.6">
				<feColorMatrix  type="matrix" values="1 0 0 0 0  0 1 0 0 0  0 0 1 0 0  0 0 0 1 0"/>
			</filter>
		</defs>
		<mask maskUnits="userSpaceOnUse" x="21.2" y="8.1" width="82.8" height="103.6" id="b_1_">
			<path class="st1" d="M314.7-1H12.1v122h302.6V-1z"/>
		</mask>
		<g class="st2">
			<path class="st3" d="M46.8,24.4l9.7,0.9c1.3,0.1,2.6-0.6,3.2-1.8l0.6-1.2c0.5-1,0.4-2.2-0.2-3.2l-3.9-5.9c-1-1.5-0.6-3.5,0.9-4.5
				c0.5-0.3,1-0.5,1.6-0.5l2.1-0.2c1.5-0.1,2.9,0.9,3.3,2.3l3.2,10.9c0.3,0.9,0.1,1.9-0.4,2.7l-3.4,5.2c-0.5,0.7-0.6,1.6-0.5,2.5
				l1.6,7.1l-4.8-6.9c-1-1.4-2.3-2.5-3.8-3.2l-8.2-3.9C47.5,24.5,47.2,24.4,46.8,24.4z"/>
			<path class="st4" d="M57.3,29.3c-0.4-0.3-0.8-0.5-1.3-0.7l-8.2-3.9c-0.3-0.2-0.7-0.3-1-0.3l9.7,0.9c1.3,0.1,2.6-0.6,3.2-1.8
				l0.6-1.2c0.5-1,0.4-2.2-0.2-3.2l-0.3-0.5l1.9,1.3c1.4,1,1.8,3,0.7,4.5c-0.1,0.2-0.2,0.3-0.4,0.4L57.3,29.3L57.3,29.3z"/>
			<path class="st5" d="M103.4,96.4c0.2,0,0.4,0.1,0.5,0.3c0.1,0.2,0,0.4-0.1,0.5c-2.3,1.9-7.6,6.1-9.2,7.4
				c-0.3,0.3-0.7,0.5-1.1,0.6c-3.2,0.9-17.9,5.3-21.3,6.3c-0.5,0.1-1,0.2-1.4,0.1c-3.5-0.6-18.6-3.1-25.8-4.3
				c-2.5-0.4-4.7-1.8-6.1-3.8c-3.6-4.9-10.7-14.5-14.1-19.1c-1.3-1.8-2.1-3.9-2.2-6.1c-0.3-7.5-1-25.6-1.3-33.7
				c-0.1-2.6,0.8-5,2.6-6.9c3.4-3.6,9.1-9.5,11.2-11.7c0.5-0.6,1.3-0.9,2.1-1l9.2-0.7c0.6,0,1.1,0.1,1.6,0.3
				c1.7,0.8,5.6,2.7,8.2,3.9c1.5,0.7,2.8,1.8,3.8,3.2c1.8,2.6,4.8,6.9,6.4,9.3c0.8,1.1,0.8,2.6,0,3.7c-2.5,3.4-7.9,10.9-11.2,15.4
				c-1.7,2.3-2.3,5.3-1.5,8.1c1.2,4.5,3,11.3,4.2,15.8c0.8,2.8,2.7,5.1,5.4,6.3c4.1,1.8,10,4.4,13.1,5.8c1.3,0.6,2.8,0.9,4.2,0.8
				L103.4,96.4z"/>
			<path class="st6" d="M47.8,24.7l8.2,3.9c1.5,0.7,2.8,1.8,3.8,3.2l6.5,9.3c0.8,1.1,0.8,2.6,0,3.7L55,60.2
				c-1.7,2.3-2.3,5.3-1.5,8.1l4.2,15.8c0.7,2.8,2.7,5.1,5.4,6.3l13.1,5.8c1.3,0.6,2.8,0.9,4.2,0.8l21.4-0.7l-20.4,4.6
				c-3,0.7-6.2,0.5-9.1-0.6L60.1,96C55,94.1,51.2,89.9,50,84.6l-3.8-16c-1.1-4.5-0.1-9.3,2.6-13.1l7.5-10.5c1.6-2.2,2.2-5,1.6-7.6
				l-0.1-0.7c-0.7-3-2.7-5.6-5.6-6.8l-7.8-3.4l2.7-2.1C47.3,24.5,47.6,24.6,47.8,24.7z"/>
			<path class="st7" d="M23.8,37.8l11.2-11.7l0,0c0.5-0.6,1.3-0.9,2.1-1l9.2-0.7c0.6,0,1.1,0.1,1.6,0.3l8.2,3.9
				c0.4,0.2,0.9,0.5,1.3,0.7l-7.9-1c-3.2-0.4-6.5,0.8-8.6,3.3L32.9,41c-2.8,3.3-4.2,7.6-3.7,12l2.5,25.3c0.3,2.6,1.2,5.1,2.6,7.3
				l7.5,11.2c2.3,3.4,5.8,5.9,9.9,6.8l16.1,3.6c2.1,0.5,4.4,0.5,6.5,0.1c4.1-0.8,11.1-2.2,14.8-3.4c2-0.6,6.3-3,10-5
				c0.6-0.3,0.8-1,0.5-1.6c-0.2-0.4-0.6-0.6-1-0.7l4.7-0.2c0.3,0,0.5,0.2,0.5,0.5c0,0.2-0.1,0.3-0.2,0.4l-9.2,7.5
				c-0.3,0.3-0.7,0.5-1.1,0.6l-21.3,6.3c-0.5,0.1-1,0.2-1.4,0.1l-25.8-4.3c-2.5-0.4-4.7-1.8-6.1-3.8L24.6,84.5
				c-1.3-1.8-2-3.9-2.1-6.1l-1.3-33.7C21.1,42.2,22,39.7,23.8,37.8L23.8,37.8z M98.7,96.5l-0.2,0C98.5,96.5,98.6,96.5,98.7,96.5z"/>
		</g>
	</g>
</g>
</svg>
